<svg id="图层_1" data-name="图层 1" xmlns="http://www.w3.org/2000/svg" viewBox="0 0 502 319"><defs><style>.cls-1{fill:#fff;}.cls-2{fill:none;stroke:#ed1c24;stroke-miterlimit:10;}.cls-3{fill:red;}.cls-4{fill:#0071bc;}.cls-5{isolation:isolate;font-size:21.06px;font-family:AdobeSongStd-Light-GBpc-EUC-H, Adobe Song Std;}</style></defs><rect class="cls-1" width="502" height="319"/><path d="M117.37,50.73A82.38,82.38,0,1,1,35,133.1a82.46,82.46,0,0,1,82.37-82.37m0-1a83.38,83.38,0,1,0,83.37,83.37,83.38,83.38,0,0,0-83.37-83.37Z" transform="translate(4 5)"/><rect class="cls-1" x="39.77" y="109.91" width="155.21" height="46.39" transform="translate(-52.59 173.2) rotate(-60)"/><path d="M136.27,55l39.31,22.7L98.47,211.23l-39.31-22.7L136.27,55m-.37-1.36L57.8,188.9l41,23.69,78.1-135.28-41-23.69Z" transform="translate(4 5)"/><path d="M373.63,50.73a82.38,82.38,0,1,1-82.37,82.37,82.46,82.46,0,0,1,82.37-82.37m0-1A83.38,83.38,0,1,0,457,133.1a83.37,83.37,0,0,0-83.37-83.37Z" transform="translate(4 5)"/><path d="M392.53,55l39.31,22.7L354.73,211.23l-39.31-22.7L392.53,55m-.37-1.36L314.06,188.9l41,23.69L433.2,77.31l-41-23.69Z" transform="translate(4 5)"/><line class="cls-2" x1="149.45" y1="88.96" x2="89.78" y2="194.27"/><line class="cls-2" x1="407.32" y1="86.17" x2="347.65" y2="191.48"/><polygon class="cls-3" points="153.37 82.17 149.16 103.38 137.11 96.42 153.37 82.17"/><polygon class="cls-3" points="409.95 82.59 405.74 103.79 393.69 96.83 409.95 82.59"/><path class="cls-4" d="M65.17,198.11a110.72,110.72,0,0,0,21,12.32L59.45,234.91Z" transform="translate(4 5)"/><path class="cls-4" d="M405.75,56.15c5.4,2.18,14.39,7.62,19.24,11.28l5.68-31.74" transform="translate(4 5)"/><path class="cls-3" d="M315.1,108c0-.19-.07-.28-.21-.28a.84.84,0,0,0-.57.32,2.71,2.71,0,0,0-.48,1s0,0,0,0,0,0,0,0l0,0h-.33a.18.18,0,0,1-.06-.1,1.36,1.36,0,0,1,.09-.33,4.66,4.66,0,0,1,.27-.58,1.71,1.71,0,0,1,.49-.58,1.22,1.22,0,0,1,.71-.25,1,1,0,0,1,.74.27,1,1,0,0,1,.27.63,1.15,1.15,0,0,1,0,.3,3,3,0,0,1-.17.49c-.12.29-.23.62-.35,1a4.48,4.48,0,0,0-.21,1,1.7,1.7,0,0,0,.06.5.66.66,0,0,0,.71.48,1,1,0,0,0,.78-.38,2.74,2.74,0,0,0,.56-.89,8.25,8.25,0,0,0,.33-.94,2.57,2.57,0,0,0,.12-.62,1.06,1.06,0,0,0-.09-.45.74.74,0,0,0-.2-.29l-.2-.21a.34.34,0,0,1-.09-.24.67.67,0,0,1,.21-.47.65.65,0,0,1,.46-.21.5.5,0,0,1,.39.2,1.13,1.13,0,0,1,.18.66,5.08,5.08,0,0,1-.14.93,12.25,12.25,0,0,1-.41,1.41,4,4,0,0,1-.81,1.35,1.63,1.63,0,0,1-1.19.57,1.67,1.67,0,0,1-1.15-.37,1.34,1.34,0,0,1-.42-1.07,3.1,3.1,0,0,1,.09-.73c.06-.24.22-.68.46-1.32A3.71,3.71,0,0,0,315.1,108Z" transform="translate(4 5)"/><path class="cls-3" d="M319.49,104.77a.44.44,0,0,1-.34-.14.51.51,0,0,1-.13-.35,1.35,1.35,0,0,1,.42-1,1.48,1.48,0,0,1,1.06-.41,1.73,1.73,0,0,1,1.21.45,1.49,1.49,0,0,1,.49,1.15,1.4,1.4,0,0,1-.16.66,2.29,2.29,0,0,1-.38.54c-.15.15-.36.35-.64.59s-.45.41-.8.73l-.47.45h.61a10.84,10.84,0,0,0,1.33,0,2.11,2.11,0,0,0,.19-.71v0h.32v0s0,.26-.1.72a4.6,4.6,0,0,1-.12.74v0h-3v-.25a.28.28,0,0,1,.05-.12l.24-.27.4-.45.27-.3.27-.29.23-.26.22-.28a2.22,2.22,0,0,0,.19-.24,1.12,1.12,0,0,0,.16-.25l.12-.23a1,1,0,0,0,.11-.26,2,2,0,0,0,.05-.24,1,1,0,0,0,0-.26,1.45,1.45,0,0,0-.27-.87.92.92,0,0,0-.78-.37.81.81,0,0,0-.46.14,1,1,0,0,0-.28.26l-.08.15s0,0,0,0a.55.55,0,0,1,.3.11.44.44,0,0,1,.15.37.47.47,0,0,1-.13.34A.51.51,0,0,1,319.49,104.77Z" transform="translate(4 5)"/><path class="cls-3" d="M319,112.77a1.66,1.66,0,0,1,.43-.78,1.18,1.18,0,0,1,.92-.44,1,1,0,0,1,.51.14,1,1,0,0,1,.35.36,1,1,0,0,1,.8-.5.8.8,0,0,1,.51.17.61.61,0,0,1,.23.47.58.58,0,0,1-.12.38.45.45,0,0,1-.21.17.46.46,0,0,1-.19,0,.32.32,0,0,1-.24-.09.29.29,0,0,1-.1-.23.52.52,0,0,1,.4-.51.43.43,0,0,0-.32-.1l-.15,0a.85.85,0,0,0-.45.52,14.51,14.51,0,0,0-.48,2.06.38.38,0,0,0,.13.32.5.5,0,0,0,.28.1.84.84,0,0,0,.58-.27,1.19,1.19,0,0,0,.39-.64c0-.06,0-.09.05-.09l.13,0h0c.08,0,.12,0,.12.07a.45.45,0,0,1,0,.08,1.73,1.73,0,0,1-.5.81,1.2,1.2,0,0,1-.85.35.93.93,0,0,1-.85-.5.91.91,0,0,1-.75.49h-.05a.68.68,0,0,1-.55-.2.73.73,0,0,1-.18-.44.6.6,0,0,1,.15-.42.5.5,0,0,1,.36-.16.3.3,0,0,1,.34.34.47.47,0,0,1-.09.28.79.79,0,0,1-.18.16l-.11,0h0s0,0,0,0l.12,0,.15,0a.59.59,0,0,0,.5-.36,2.63,2.63,0,0,0,.18-.55c.08-.27.15-.56.23-.86s.11-.47.12-.52a1.7,1.7,0,0,0,0-.31.38.38,0,0,0-.12-.32.39.39,0,0,0-.27-.1.9.9,0,0,0-.6.26,1.42,1.42,0,0,0-.39.65s0,.07,0,.08l-.12,0h-.12A.16.16,0,0,1,319,112.77Z" transform="translate(4 5)"/><path class="cls-3" d="M323.3,114.65a.64.64,0,0,0,0-.09,1.64,1.64,0,0,1,.07-.21,1.16,1.16,0,0,1,.11-.27.72.72,0,0,1,.19-.21.38.38,0,0,1,.26-.09.52.52,0,0,1,.33.1.47.47,0,0,1,.17.19.31.31,0,0,1,0,.12h0l.06-.06a1.08,1.08,0,0,1,.79-.36.77.77,0,0,1,.49.15.56.56,0,0,1,.19.45,3,3,0,0,1-.21.88,3.18,3.18,0,0,0-.22.72c0,.09,0,.14.1.14h.05a.43.43,0,0,0,.29-.22,1.33,1.33,0,0,0,.2-.45s0,0,.11,0,.11,0,.11,0a.27.27,0,0,1,0,.09,2.08,2.08,0,0,1-.12.32,1,1,0,0,1-.26.31.56.56,0,0,1-.39.16.43.43,0,0,1-.38-.16.48.48,0,0,1-.12-.31,3.94,3.94,0,0,1,.2-.68,2.73,2.73,0,0,0,.21-.86c0-.22-.08-.33-.25-.33h0a1,1,0,0,0-.81.57l0,.07-.19.75c-.12.5-.2.76-.21.8a.26.26,0,0,1-.25.15.21.21,0,0,1-.12,0,.19.19,0,0,1-.06-.07.13.13,0,0,1,0-.06s.07-.35.22-.92.21-.87.22-.91a.42.42,0,0,0,0-.13c0-.15-.05-.22-.14-.22s-.26.18-.35.56a.67.67,0,0,0,0,.12s0,0-.1,0h-.08S323.3,114.66,323.3,114.65Z" transform="translate(4 5)"/><path class="cls-3" d="M330.67,109.61v-.14a.24.24,0,0,1,.16-.23h3.37v-3.38c.08-.1.15-.15.22-.15a.24.24,0,0,1,.22.17v3.36H338a.26.26,0,0,1,.16.23.25.25,0,0,1-.16.22h-3.37v3.36c-.06.11-.12.16-.2.16h0c-.1,0-.16,0-.21-.16v-3.36h-3.37a.24.24,0,0,1-.16-.22Z" transform="translate(4 5)"/><path class="cls-3" d="M343.28,108c0-.19-.08-.28-.22-.28a.8.8,0,0,0-.56.32,2.57,2.57,0,0,0-.49,1s0,0,0,0a.08.08,0,0,0,0,0l0,0h-.33a.16.16,0,0,1-.07-.1,1.36,1.36,0,0,1,.09-.33,4.66,4.66,0,0,1,.27-.58,1.74,1.74,0,0,1,.5-.58,1.22,1.22,0,0,1,.71-.25,1,1,0,0,1,.73.27.86.86,0,0,1,.27.63,1.15,1.15,0,0,1,0,.3,3,3,0,0,1-.17.49c-.11.29-.23.62-.35,1a3.91,3.91,0,0,0-.2,1,2.2,2.2,0,0,0,.05.5.67.67,0,0,0,.71.48,1,1,0,0,0,.78-.38,3,3,0,0,0,.57-.89c.13-.34.24-.65.32-.94a2.26,2.26,0,0,0,.13-.62,1.06,1.06,0,0,0-.09-.45.86.86,0,0,0-.2-.29l-.21-.21a.34.34,0,0,1-.09-.24.65.65,0,0,1,.22-.47.63.63,0,0,1,.46-.21.5.5,0,0,1,.38.2,1,1,0,0,1,.18.66,4.85,4.85,0,0,1-.13.93,10.69,10.69,0,0,1-.42,1.41,4,4,0,0,1-.8,1.35,1.67,1.67,0,0,1-1.2.57,1.69,1.69,0,0,1-1.15-.37,1.33,1.33,0,0,1-.41-1.07,3.1,3.1,0,0,1,.09-.73,12.88,12.88,0,0,1,.46-1.32A4.26,4.26,0,0,0,343.28,108Z" transform="translate(4 5)"/><path class="cls-3" d="M347.67,104.77a.47.47,0,0,1-.35-.14.56.56,0,0,1-.13-.35,1.36,1.36,0,0,1,.43-1,1.46,1.46,0,0,1,1.05-.41,1.71,1.71,0,0,1,1.21.45,1.5,1.5,0,0,1,.5,1.15,1.53,1.53,0,0,1-.16.66,3.06,3.06,0,0,1-.38.54c-.15.15-.37.35-.64.59s-.46.41-.8.73l-.47.45h.61a11.12,11.12,0,0,0,1.33,0,2.45,2.45,0,0,0,.19-.71v0h.32v0s0,.26-.11.72a4.6,4.6,0,0,1-.12.74v0h-3v-.25a.28.28,0,0,1,.05-.12l.24-.27.4-.45.27-.3c.14-.14.23-.24.27-.29l.23-.26c.11-.13.19-.22.23-.28l.18-.24a1.23,1.23,0,0,0,.17-.25,1.71,1.71,0,0,1,.12-.23.93.93,0,0,0,.1-.26l.06-.24a1.84,1.84,0,0,0,0-.26,1.45,1.45,0,0,0-.27-.87.92.92,0,0,0-.77-.37.84.84,0,0,0-.47.14,1,1,0,0,0-.27.26.51.51,0,0,0-.08.15s0,0,0,0a.53.53,0,0,1,.29.11.44.44,0,0,1,.15.37.47.47,0,0,1-.13.34A.49.49,0,0,1,347.67,104.77Z" transform="translate(4 5)"/><path class="cls-3" d="M347,112.78a1.16,1.16,0,0,1,.12-.38,2,2,0,0,1,.39-.56.72.72,0,0,1,.59-.29.75.75,0,0,1,.52.18.67.67,0,0,1,.21.51c0,.1,0,.16,0,.17s0,.14-.13.37-.17.48-.26.77a2.13,2.13,0,0,0-.13.69.79.79,0,0,0,.11.47.45.45,0,0,0,.33.15.7.7,0,0,0,.35-.09,1,1,0,0,0,.24-.18,2.49,2.49,0,0,0,.22-.27s0,0,0-.16.06-.25.11-.47.1-.41.15-.59c.21-.79.32-1.21.34-1.25a.35.35,0,0,1,.34-.21.23.23,0,0,1,.17,0l.09.1a.09.09,0,0,1,0,.07c0,.07-.13.63-.39,1.67s-.41,1.63-.45,1.73a2.13,2.13,0,0,1-1.87,1.45,1.11,1.11,0,0,1-.63-.18.57.57,0,0,1-.27-.52.85.85,0,0,1,.05-.3.33.33,0,0,1,.16-.17.48.48,0,0,1,.16-.08.28.28,0,0,1,.13,0c.24,0,.35.11.35.34a.47.47,0,0,1-.09.28.64.64,0,0,1-.19.16l-.1,0h0s.06.06.15.1a.66.66,0,0,0,.27.06h.06l.21,0a1.11,1.11,0,0,0,.49-.3,1.77,1.77,0,0,0,.34-.5,4.13,4.13,0,0,0,.18-.44.93.93,0,0,0,.07-.24l-.05,0-.15.09-.21.09a1.15,1.15,0,0,1-.31,0A1.26,1.26,0,0,1,348,115a.85.85,0,0,1-.36-.57,1.43,1.43,0,0,1,0-.25,3.48,3.48,0,0,1,.28-1.19,4.17,4.17,0,0,0,.28-.93v-.11a.07.07,0,0,0,0-.06.11.11,0,0,0-.08,0h0a.46.46,0,0,0-.33.15,1.27,1.27,0,0,0-.24.33c-.06.12-.1.23-.14.33a.8.8,0,0,1-.06.18.24.24,0,0,1-.13,0H347S347,112.8,347,112.78Z" transform="translate(4 5)"/><path class="cls-3" d="M350.82,114.65a.64.64,0,0,0,0-.09,1.64,1.64,0,0,1,.07-.21,1.86,1.86,0,0,1,.11-.27.72.72,0,0,1,.19-.21.38.38,0,0,1,.26-.09.52.52,0,0,1,.33.1.47.47,0,0,1,.17.19.31.31,0,0,1,0,.12h0l.06-.06a1.08,1.08,0,0,1,.79-.36.75.75,0,0,1,.49.15.56.56,0,0,1,.19.45,3,3,0,0,1-.21.88,3.18,3.18,0,0,0-.22.72c0,.09,0,.14.1.14h.05a.43.43,0,0,0,.29-.22,1.33,1.33,0,0,0,.2-.45s0,0,.11,0,.12,0,.12,0l0,.09a2.08,2.08,0,0,1-.12.32,1,1,0,0,1-.26.31.56.56,0,0,1-.39.16.43.43,0,0,1-.38-.16.48.48,0,0,1-.12-.31,3.94,3.94,0,0,1,.2-.68,2.73,2.73,0,0,0,.21-.86c0-.22-.08-.33-.25-.33h0a1,1,0,0,0-.81.57l0,.07-.19.75c-.12.5-.2.76-.21.8a.26.26,0,0,1-.25.15.18.18,0,0,1-.11,0,.23.23,0,0,1-.07-.07.13.13,0,0,1,0-.06s.07-.35.22-.92.21-.87.22-.91a.42.42,0,0,0,0-.13c0-.15-.05-.22-.14-.22s-.26.18-.35.56a.67.67,0,0,0,0,.12s0,0-.1,0h-.08S350.82,114.66,350.82,114.65Z" transform="translate(4 5)"/><path class="cls-3" d="M312.94,98.88a.2.2,0,0,1,.21.2s-1,3.38-3.15,10l-3.17,10a.38.38,0,0,1-.27.08h-.13a.39.39,0,0,1,0-.06.08.08,0,0,0,0-.06.22.22,0,0,1,0-.1.41.41,0,0,0-.05-.16.94.94,0,0,1-.07-.26c0-.11-.06-.24-.11-.38l-.15-.54q-.09-.33-.21-.72l-.27-1c-.1-.37-.22-.76-.35-1.19l-1.23-4.26-.73.88-.31-.29,1.14-1.37.59-.68L307,117.2,312.73,99A.22.22,0,0,1,312.94,98.88Z" transform="translate(4 5)"/><rect class="cls-3" x="317.15" y="103.88" width="41.9" height="0.68"/><path class="cls-3" d="M42.77,110.22v-.13a.22.22,0,0,1,.15-.2h5.85a.21.21,0,0,1,0,.4H42.92a.22.22,0,0,1-.15-.2Z" transform="translate(4 5)"/><path class="cls-3" d="M61.79,108.78c0-.17-.06-.25-.19-.25a.75.75,0,0,0-.51.29,2.29,2.29,0,0,0-.43.9s0,0,0,0a0,0,0,0,0,0,0l0,0h-.29s-.06-.07-.06-.09a.93.93,0,0,1,.08-.3,3.69,3.69,0,0,1,.24-.52,1.66,1.66,0,0,1,.44-.51,1.05,1.05,0,0,1,.64-.22.85.85,0,0,1,.65.24.77.77,0,0,1,.24.56.84.84,0,0,1,0,.26,2.54,2.54,0,0,1-.15.45c-.1.25-.2.55-.31.89a3.56,3.56,0,0,0-.18.9,1.72,1.72,0,0,0,0,.44.59.59,0,0,0,.63.44,1,1,0,0,0,.7-.35,2.31,2.31,0,0,0,.5-.79q.18-.45.3-.84a2.45,2.45,0,0,0,.11-.55,1,1,0,0,0-.08-.41.92.92,0,0,0-.19-.26l-.18-.18a.33.33,0,0,1-.08-.22.65.65,0,0,1,.61-.6.43.43,0,0,1,.34.18,1,1,0,0,1,.16.58,4.56,4.56,0,0,1-.12.84,9.84,9.84,0,0,1-.37,1.26,3.62,3.62,0,0,1-.72,1.2,1.47,1.47,0,0,1-1.07.51,1.49,1.49,0,0,1-1-.33,1.21,1.21,0,0,1-.38-1,2.87,2.87,0,0,1,.08-.64,12.43,12.43,0,0,1,.42-1.18A3.44,3.44,0,0,0,61.79,108.78Z" transform="translate(4 5)"/><path class="cls-3" d="M65.71,105.9a.42.42,0,0,1-.31-.13.5.5,0,0,1-.11-.32,1.15,1.15,0,0,1,.38-.87,1.27,1.27,0,0,1,.94-.37,1.52,1.52,0,0,1,1.08.4,1.33,1.33,0,0,1,.44,1,1.3,1.3,0,0,1-.14.58,2.24,2.24,0,0,1-.34.49c-.14.14-.33.31-.57.52l-.72.66-.42.4h.55a8.9,8.9,0,0,0,1.19,0,2,2,0,0,0,.17-.63v0h.28v0s0,.23-.09.64a4.53,4.53,0,0,1-.11.66v0H65.29v-.22a.19.19,0,0,1,0-.11l.22-.25.35-.39.24-.27.25-.26.2-.24.2-.24.17-.21a1.45,1.45,0,0,0,.15-.23,1.89,1.89,0,0,1,.1-.21.5.5,0,0,0,.09-.23,1.6,1.6,0,0,0,0-.21.8.8,0,0,0,0-.23,1.23,1.23,0,0,0-.25-.78.8.8,0,0,0-.69-.33.73.73,0,0,0-.41.12.83.83,0,0,0-.25.24.4.4,0,0,0-.07.13s0,0,0,0a.43.43,0,0,1,.27.1.39.39,0,0,1,.13.33.4.4,0,0,1-.11.3A.47.47,0,0,1,65.71,105.9Z" transform="translate(4 5)"/><path class="cls-3" d="M65.3,113a1.54,1.54,0,0,1,.39-.69,1.05,1.05,0,0,1,.82-.4.82.82,0,0,1,.46.13.79.79,0,0,1,.31.32A.86.86,0,0,1,68,112a.67.67,0,0,1,.45.16.56.56,0,0,1,.1.75.39.39,0,0,1-.19.16l-.16,0A.36.36,0,0,1,68,113a.29.29,0,0,1-.08-.21.45.45,0,0,1,.36-.45.39.39,0,0,0-.29-.09h-.13a.73.73,0,0,0-.4.47,12.57,12.57,0,0,0-.43,1.84.35.35,0,0,0,.11.29.46.46,0,0,0,.25.08.79.79,0,0,0,.52-.23,1.2,1.2,0,0,0,.35-.58.27.27,0,0,1,0-.08h.15c.07,0,.1,0,.1,0a.32.32,0,0,1,0,.08,1.6,1.6,0,0,1-.44.72,1.09,1.09,0,0,1-.77.32.81.81,0,0,1-.75-.45.82.82,0,0,1-.67.44h0a.58.58,0,0,1-.5-.19.67.67,0,0,1-.16-.39.53.53,0,0,1,.14-.37.43.43,0,0,1,.32-.14.27.27,0,0,1,.3.3.38.38,0,0,1-.08.25.42.42,0,0,1-.17.14l-.09,0h0l0,0,.12,0a.21.21,0,0,0,.13,0,.51.51,0,0,0,.44-.32,2.15,2.15,0,0,0,.17-.48c.07-.25.13-.51.2-.77s.1-.42.11-.47a1.3,1.3,0,0,0,0-.28.33.33,0,0,0-.11-.28.36.36,0,0,0-.24-.09.81.81,0,0,0-.54.23,1.17,1.17,0,0,0-.34.58s0,.07,0,.07l-.11,0h-.1A.15.15,0,0,1,65.3,113Z" transform="translate(4 5)"/><path class="cls-3" d="M69.11,114.72s0,0,0-.08l.06-.19a1.94,1.94,0,0,1,.1-.24.56.56,0,0,1,.17-.18.35.35,0,0,1,.23-.09.49.49,0,0,1,.3.09.44.44,0,0,1,.15.17.45.45,0,0,1,0,.11h0l0-.06a1,1,0,0,1,.7-.32.68.68,0,0,1,.44.14.48.48,0,0,1,.17.39,2.47,2.47,0,0,1-.19.79,2.52,2.52,0,0,0-.19.64c0,.09,0,.14.08.14h.05a.42.42,0,0,0,.26-.19,1.22,1.22,0,0,0,.18-.4s0,0,.1,0,.1,0,.1,0a.31.31,0,0,0,0,.07c0,.1-.07.19-.11.29a1.14,1.14,0,0,1-.23.28.56.56,0,0,1-.35.14.4.4,0,0,1-.34-.14.45.45,0,0,1-.11-.28,3.08,3.08,0,0,1,.18-.61,2.93,2.93,0,0,0,.19-.76c0-.2-.08-.3-.22-.3h0a.86.86,0,0,0-.73.51l0,.06-.17.68c-.11.44-.18.67-.19.71a.23.23,0,0,1-.22.13.15.15,0,0,1-.1,0,.17.17,0,0,1-.06-.06.11.11,0,0,1,0,0s.06-.32.19-.82.2-.78.2-.82a.35.35,0,0,0,0-.12c0-.13,0-.19-.12-.19s-.24.16-.32.5l0,.11s0,0-.1,0h-.07A.09.09,0,0,1,69.11,114.72Z" transform="translate(4 5)"/><path class="cls-3" d="M75.69,110.22v-.13a.22.22,0,0,1,.15-.2h3v-3c.07-.09.13-.14.19-.14s.15,0,.2.16v3h3a.21.21,0,0,1,0,.4h-3v3q-.07.15-.18.15h0q-.12,0-.18-.15v-3h-3a.22.22,0,0,1-.15-.2Z" transform="translate(4 5)"/><path class="cls-3" d="M87,108.78c0-.17-.06-.25-.19-.25a.72.72,0,0,0-.5.29,2.28,2.28,0,0,0-.44.9l0,0s0,0,0,0,0,0,0,0h-.29s-.06-.07-.06-.09a1.33,1.33,0,0,1,.08-.3c.06-.14.14-.32.24-.52a1.57,1.57,0,0,1,.45-.51,1,1,0,0,1,.63-.22.89.89,0,0,1,.66.24.86.86,0,0,1,.24.56.84.84,0,0,1,0,.26,2.54,2.54,0,0,1-.15.45c-.1.25-.21.55-.32.89a4.74,4.74,0,0,0-.18.9,1.72,1.72,0,0,0,0,.44.6.6,0,0,0,.64.44.93.93,0,0,0,.69-.35,2.34,2.34,0,0,0,.51-.79,7.69,7.69,0,0,0,.29-.84,2.45,2.45,0,0,0,.11-.55,1,1,0,0,0-.08-.41.75.75,0,0,0-.18-.26,1.53,1.53,0,0,1-.18-.18.29.29,0,0,1-.08-.22.54.54,0,0,1,.19-.41.56.56,0,0,1,.41-.19.43.43,0,0,1,.34.18.89.89,0,0,1,.16.58,4.56,4.56,0,0,1-.12.84,9.84,9.84,0,0,1-.37,1.26,3.78,3.78,0,0,1-.71,1.2,1.49,1.49,0,0,1-1.07.51,1.53,1.53,0,0,1-1-.33,1.21,1.21,0,0,1-.37-1,2.39,2.39,0,0,1,.08-.64,9.48,9.48,0,0,1,.41-1.18A3.44,3.44,0,0,0,87,108.78Z" transform="translate(4 5)"/><path class="cls-3" d="M90.87,105.9a.38.38,0,0,1-.3-.13.45.45,0,0,1-.12-.32,1.18,1.18,0,0,1,.38-.87,1.28,1.28,0,0,1,.94-.37,1.52,1.52,0,0,1,1.08.4,1.33,1.33,0,0,1,.44,1,1.18,1.18,0,0,1-.14.58,1.94,1.94,0,0,1-.34.49,6.69,6.69,0,0,1-.57.52c-.17.15-.41.37-.71.66l-.42.4h.54a8.9,8.9,0,0,0,1.19,0,2,2,0,0,0,.17-.63v0h.28v0s0,.23-.09.64a5.81,5.81,0,0,1-.1.66v0H90.45v-.22a.21.21,0,0,1,0-.11,2.6,2.6,0,0,1,.21-.25l.36-.39.24-.27.24-.26.21-.24L92,107s.09-.12.16-.21a1.45,1.45,0,0,0,.15-.23,2.21,2.21,0,0,1,.11-.21.92.92,0,0,0,.09-.23c0-.07,0-.14,0-.21a1.52,1.52,0,0,0,0-.23,1.29,1.29,0,0,0-.24-.78.8.8,0,0,0-.69-.33.74.74,0,0,0-.42.12.83.83,0,0,0-.25.24.93.93,0,0,0-.07.13s0,0,0,0a.43.43,0,0,1,.26.1.39.39,0,0,1,.14.33.41.41,0,0,1-.12.3A.45.45,0,0,1,90.87,105.9Z" transform="translate(4 5)"/><path class="cls-3" d="M90.25,113.05a1,1,0,0,1,.1-.34,2,2,0,0,1,.34-.5.66.66,0,0,1,.53-.26.65.65,0,0,1,.47.16.63.63,0,0,1,.19.46c0,.09,0,.14,0,.15s0,.12-.12.33-.15.43-.23.69a2.15,2.15,0,0,0-.12.61.75.75,0,0,0,.1.43.42.42,0,0,0,.3.13.68.68,0,0,0,.31-.08,1.05,1.05,0,0,0,.22-.17,1.78,1.78,0,0,0,.19-.23.83.83,0,0,1,0-.14c0-.09,0-.23.1-.42s.08-.37.13-.53c.18-.71.28-1.09.3-1.12a.31.31,0,0,1,.31-.19.2.2,0,0,1,.15,0l.08.08a.2.2,0,0,1,0,.07c0,.06-.12.56-.35,1.49s-.37,1.45-.4,1.54a1.91,1.91,0,0,1-1.67,1.3,1,1,0,0,1-.57-.16.52.52,0,0,1-.24-.47.67.67,0,0,1,0-.26.37.37,0,0,1,.14-.16.61.61,0,0,1,.14-.07l.12,0c.21,0,.31.1.31.3a.38.38,0,0,1-.08.25.48.48,0,0,1-.16.14l-.1,0h0s.06,0,.14.09a.69.69,0,0,0,.24.05h.06l.18,0a.94.94,0,0,0,.44-.27,1.56,1.56,0,0,0,.3-.44c.07-.16.13-.29.17-.4a1.33,1.33,0,0,0,0-.21l0,0-.14.08-.18.08a1.45,1.45,0,0,1-.28,0,1.12,1.12,0,0,1-.58-.16.75.75,0,0,1-.32-.51,1,1,0,0,1,0-.22,3.09,3.09,0,0,1,.25-1.06,3.23,3.23,0,0,0,.25-.83v-.1s0,0,0,0a.1.1,0,0,0-.08,0h0a.39.39,0,0,0-.3.14,1,1,0,0,0-.21.29,1.88,1.88,0,0,0-.12.3.67.67,0,0,1-.06.15.2.2,0,0,1-.11,0h-.1S90.25,113.07,90.25,113.05Z" transform="translate(4 5)"/><path class="cls-3" d="M93.69,114.72s0,0,0-.08a.62.62,0,0,1,.06-.19,1.94,1.94,0,0,1,.1-.24A.56.56,0,0,1,94,114a.35.35,0,0,1,.23-.09.49.49,0,0,1,.3.09.44.44,0,0,1,.15.17.45.45,0,0,1,0,.11h0l0-.06a1,1,0,0,1,.7-.32.68.68,0,0,1,.44.14.48.48,0,0,1,.17.39,2.47,2.47,0,0,1-.19.79,2.52,2.52,0,0,0-.19.64c0,.09,0,.14.08.14h.05a.42.42,0,0,0,.26-.19,1.22,1.22,0,0,0,.18-.4s0,0,.1,0,.1,0,.1,0a.31.31,0,0,0,0,.07c0,.1-.07.19-.11.29a1.14,1.14,0,0,1-.23.28.56.56,0,0,1-.35.14.43.43,0,0,1-.45-.42,3.08,3.08,0,0,1,.18-.61,2.93,2.93,0,0,0,.19-.76c0-.2-.08-.3-.22-.3h0a.86.86,0,0,0-.73.51l0,.06-.17.68c-.11.44-.18.67-.19.71a.23.23,0,0,1-.22.13.15.15,0,0,1-.1,0,.17.17,0,0,1-.06-.06.11.11,0,0,1,0,0s.06-.32.19-.82.2-.78.2-.82a.35.35,0,0,0,0-.12c0-.13,0-.19-.12-.19s-.24.16-.32.5l0,.11s0,0-.1,0h-.07A.09.09,0,0,1,93.69,114.72Z" transform="translate(4 5)"/><path class="cls-3" d="M59.85,100.63a.19.19,0,0,1,.2.18s-.94,3-2.82,9L54.4,118.7a.3.3,0,0,1-.24.07H54a.11.11,0,0,1,0,0,.17.17,0,0,0,0,0,.2.2,0,0,1,0-.09.27.27,0,0,0,0-.14.9.9,0,0,1-.07-.23c0-.1-.05-.22-.09-.35s-.09-.29-.14-.48-.12-.41-.18-.64l-.25-.85c-.09-.33-.19-.68-.31-1.06L51.81,111l-.65.79-.27-.26,1-1.22.53-.61L54.52,117l5.15-16.27A.21.21,0,0,1,59.85,100.63Z" transform="translate(4 5)"/><rect class="cls-3" x="64.05" y="105.63" width="37.42" height="0.6"/><path class="cls-4" d="M306.16,34.47a4.62,4.62,0,0,1,1.2-3A3.49,3.49,0,0,1,310,30a1.78,1.78,0,0,1,1.41.77.8.8,0,0,1,.73-.47.55.55,0,0,1,.36.13.39.39,0,0,1,.15.31c0,.14-.19,1-.58,2.51s-.58,2.41-.59,2.61a.82.82,0,0,0,.11.52.46.46,0,0,0,.33.14.7.7,0,0,0,.31-.14,3.44,3.44,0,0,0,.64-1.51c.07-.21.12-.32.16-.33h.22c.2,0,.3,0,.3.14a2.91,2.91,0,0,1-.08.42,5.44,5.44,0,0,1-.31.85,2.63,2.63,0,0,1-.51.78,1.37,1.37,0,0,1-.5.33,1.79,1.79,0,0,1-1.27-.2,1.19,1.19,0,0,1-.47-.49l-.1-.23s0,0-.06,0l-.06.07a2.8,2.8,0,0,1-1.89.88,2.14,2.14,0,0,1-1.52-.63A2.66,2.66,0,0,1,306.16,34.47Zm5-2.68a1.55,1.55,0,0,0-.08-.35,1.71,1.71,0,0,0-.36-.55,1,1,0,0,0-.73-.31,1.53,1.53,0,0,0-1.05.48,3.26,3.26,0,0,0-.78,1.28,12.26,12.26,0,0,0-.65,2.57v.18a.87.87,0,0,1,0,.18,1.34,1.34,0,0,0,.28,1,1,1,0,0,0,.67.28,1.74,1.74,0,0,0,1.18-.52,2.47,2.47,0,0,0,.69-.8s.17-.6.43-1.68S311.15,31.87,311.16,31.79Z" transform="translate(4 5)"/><path class="cls-4" d="M314.36,30.89c-.07-.07-.11-.12-.11-.15a1.54,1.54,0,0,1,.05-.26c0-.12.05-.2.08-.22s.06-.07.14-.07l.8,0h.83l.3-1.26c0-.11.07-.26.11-.45a3.07,3.07,0,0,1,.11-.41,3.09,3.09,0,0,0,.09-.31.56.56,0,0,1,.13-.27,1.57,1.57,0,0,0,.15-.19.4.4,0,0,1,.22-.14,1.43,1.43,0,0,1,.29,0,.48.48,0,0,1,.39.17.55.55,0,0,1,.11.3,7.05,7.05,0,0,1-.14.74c-.1.42-.2.83-.32,1.24l-.15.58a3.83,3.83,0,0,0,.78,0h.8a.26.26,0,0,1,.11.17.72.72,0,0,1-.2.55h-1.68l-.57,2.28c-.4,1.67-.61,2.57-.61,2.7,0,.44.14.66.43.66a1.5,1.5,0,0,0,1.06-.53,4,4,0,0,0,.84-1.32c0-.07,0-.1.07-.11l.24,0h.06q.24,0,.24.12a.88.88,0,0,1-.05.19,3.08,3.08,0,0,1-.28.6,5.9,5.9,0,0,1-.54.73,2.57,2.57,0,0,1-.8.66,1.84,1.84,0,0,1-1.85,0,1.36,1.36,0,0,1-.61-.82,2.17,2.17,0,0,1,0-.43v-.28l.55-2.2c.36-1.47.55-2.22.56-2.23a4.06,4.06,0,0,0-.8,0Z" transform="translate(4 5)"/><path class="cls-4" d="M320.14,34.47a4.66,4.66,0,0,1,1.19-3A3.5,3.5,0,0,1,324,30a1.79,1.79,0,0,1,1.41.77.79.79,0,0,1,.72-.47.52.52,0,0,1,.36.13.37.37,0,0,1,.16.31c0,.14-.19,1-.58,2.51s-.59,2.41-.6,2.61a.89.89,0,0,0,.11.52.5.5,0,0,0,.33.14.73.73,0,0,0,.32-.14,3.57,3.57,0,0,0,.64-1.51c.06-.21.12-.32.16-.33h.22c.2,0,.3,0,.3.14a2.91,2.91,0,0,1-.08.42,4.74,4.74,0,0,1-.32.85,2.44,2.44,0,0,1-.5.78,1.45,1.45,0,0,1-.5.33,1.69,1.69,0,0,1-.38,0,1.58,1.58,0,0,1-.89-.24,1.19,1.19,0,0,1-.47-.49l-.1-.23s0,0-.06,0l-.06.07a2.8,2.8,0,0,1-1.89.88,2.14,2.14,0,0,1-1.52-.63A2.66,2.66,0,0,1,320.14,34.47Zm5-2.68a1.13,1.13,0,0,0-.08-.35,1.43,1.43,0,0,0-.36-.55,1,1,0,0,0-.72-.31,1.5,1.5,0,0,0-1.05.48,3.28,3.28,0,0,0-.79,1.28,12.24,12.24,0,0,0-.64,2.57v.18a.74.74,0,0,1,0,.18,1.33,1.33,0,0,0,.29,1,1,1,0,0,0,.67.28,1.76,1.76,0,0,0,1.18-.52,2.47,2.47,0,0,0,.69-.8s.16-.6.42-1.68S325.12,31.87,325.13,31.79Z" transform="translate(4 5)"/><path class="cls-4" d="M328.26,32.43c0-.06,0-.15,0-.25s.09-.3.19-.6a5.24,5.24,0,0,1,.32-.73,1.81,1.81,0,0,1,.51-.59,1.17,1.17,0,0,1,.73-.26,1.52,1.52,0,0,1,.94.28,1.16,1.16,0,0,1,.56.86s0,0,0,0l.17-.17a3,3,0,0,1,2.19-1,2.09,2.09,0,0,1,1.36.42,1.54,1.54,0,0,1,.54,1.24,7.52,7.52,0,0,1-.6,2.47,8.44,8.44,0,0,0-.6,2c0,.27.09.41.27.41l.14,0a1.3,1.3,0,0,0,.82-.59,4,4,0,0,0,.55-1.26c0-.08.12-.12.31-.12s.32,0,.32.12,0,.09-.07.24a5.09,5.09,0,0,1-.34.89,3,3,0,0,1-.73.88,1.55,1.55,0,0,1-1.08.43,1.29,1.29,0,0,1-1.07-.43,1.4,1.4,0,0,1-.33-.88,9.65,9.65,0,0,1,.57-1.88,8.35,8.35,0,0,0,.58-2.39q0-.93-.69-.93h-.08a2.67,2.67,0,0,0-2.28,1.59l-.11.19-.51,2.1q-.52,2.06-.6,2.22a.7.7,0,0,1-.68.42.58.58,0,0,1-.33-.09.7.7,0,0,1-.17-.19.25.25,0,0,1,0-.16c0-.13.2-1,.6-2.56s.6-2.42.62-2.56a2.24,2.24,0,0,0,0-.36c0-.41-.13-.61-.38-.61s-.72.52-1,1.57q-.09.32-.09.33t-.3.09h-.22A.26.26,0,0,1,328.26,32.43Z" transform="translate(4 5)"/><path class="cls-4" d="M339.06,30.2a.83.83,0,0,1-.67-.28,1,1,0,0,1-.26-.69A2.58,2.58,0,0,1,339,27.3a2.8,2.8,0,0,1,2.07-.82,3.39,3.39,0,0,1,2.39.88,3,3,0,0,1,1,2.28,2.72,2.72,0,0,1-.31,1.28,4.21,4.21,0,0,1-.76,1.07c-.29.31-.71.69-1.25,1.16-.38.33-.9.81-1.57,1.45l-.93.88h1.19a17.49,17.49,0,0,0,2.63-.08,4.45,4.45,0,0,0,.37-1.39V34h.63V34s-.08.5-.2,1.43a12.26,12.26,0,0,1-.24,1.44v0h-5.83v-.49a.42.42,0,0,1,.1-.23c.06-.09.22-.27.47-.55l.79-.88c.09-.11.27-.3.53-.58l.53-.59c.1-.1.25-.27.46-.51s.35-.42.44-.54l.36-.47a2.62,2.62,0,0,0,.33-.5c.06-.14.14-.29.23-.46a1.67,1.67,0,0,0,.21-.5c0-.17.08-.32.11-.47a2.62,2.62,0,0,0,.05-.52,2.77,2.77,0,0,0-.54-1.71,1.77,1.77,0,0,0-1.52-.72,1.62,1.62,0,0,0-.91.26,2,2,0,0,0-.55.52,1.06,1.06,0,0,0-.16.3s0,0,.08,0a1,1,0,0,1,.58.22.82.82,0,0,1,.3.72.92.92,0,0,1-.25.66A1,1,0,0,1,339.06,30.2Z" transform="translate(4 5)"/><path class="cls-4" d="M346.68,33a13.58,13.58,0,0,1,.15-2.06,15.43,15.43,0,0,1,.37-1.68,6.33,6.33,0,0,1,.58-1.38l.59-1.05A4.73,4.73,0,0,1,349,26c.3-.29.47-.47.52-.53a3,3,0,0,1,.39-.33h.27c.15,0,.22.05.22.14a1.33,1.33,0,0,1-.27.33,8.9,8.9,0,0,0-.64.83,11.36,11.36,0,0,0-.77,1.35,9.23,9.23,0,0,0-.66,2.17,15.66,15.66,0,0,0-.27,3,15.48,15.48,0,0,0,.27,3,10.3,10.3,0,0,0,.64,2.18,7.7,7.7,0,0,0,.77,1.35c.27.35.49.62.66.83l.27.33c0,.1-.08.14-.23.14h-.26l-.44-.37a7.78,7.78,0,0,1-2.15-3.33A12.84,12.84,0,0,1,346.68,33Z" transform="translate(4 5)"/><path class="cls-4" d="M354,31q0-.39-.3-.39a1.15,1.15,0,0,0-.79.45,3.65,3.65,0,0,0-.67,1.4l0,0s0,0,0,.05l0,0h-.46a.26.26,0,0,1-.09-.14,1.61,1.61,0,0,1,.13-.45,5.45,5.45,0,0,1,.37-.82,2.51,2.51,0,0,1,.69-.8,1.73,1.73,0,0,1,1-.35,1.35,1.35,0,0,1,1,.38,1.29,1.29,0,0,1,.38.88,1.42,1.42,0,0,1-.05.41,4.34,4.34,0,0,1-.23.69c-.16.4-.32.86-.49,1.4a5.59,5.59,0,0,0-.28,1.39,2.17,2.17,0,0,0,.08.69.92.92,0,0,0,1,.68,1.51,1.51,0,0,0,1.08-.53,3.89,3.89,0,0,0,.78-1.24c.19-.48.34-.91.46-1.31a3.29,3.29,0,0,0,.17-.86,1.54,1.54,0,0,0-.12-.63,1.35,1.35,0,0,0-.29-.41l-.28-.28a.53.53,0,0,1-.12-.35,1,1,0,0,1,.94-.94.69.69,0,0,1,.53.28,1.47,1.47,0,0,1,.25.91,7.25,7.25,0,0,1-.18,1.31,14.86,14.86,0,0,1-.59,2,5.46,5.46,0,0,1-1.11,1.87,2.27,2.27,0,0,1-1.67.8,2.34,2.34,0,0,1-1.6-.52,1.88,1.88,0,0,1-.58-1.49,3.93,3.93,0,0,1,.13-1,16.82,16.82,0,0,1,.64-1.84A5.67,5.67,0,0,0,354,31Z" transform="translate(4 5)"/><path class="cls-4" d="M359.16,36.11a1.7,1.7,0,0,1,.17-.54,2.84,2.84,0,0,1,.53-.78,1,1,0,0,1,.82-.4,1,1,0,0,1,.73.25,1,1,0,0,1,.29.71,1.14,1.14,0,0,1,0,.24s-.06.19-.18.51-.24.67-.37,1.07a3.12,3.12,0,0,0-.17,1,1.07,1.07,0,0,0,.15.66.58.58,0,0,0,.47.2,1,1,0,0,0,.48-.12,1.36,1.36,0,0,0,.34-.25c.08-.09.18-.21.3-.37l.06-.22.15-.66c.07-.29.14-.57.21-.82.28-1.11.44-1.69.47-1.74a.48.48,0,0,1,.48-.3.31.31,0,0,1,.23.08.46.46,0,0,1,.12.13.13.13,0,0,1,0,.1c0,.1-.18.87-.54,2.33s-.57,2.26-.62,2.4A2.89,2.89,0,0,1,362.19,41a2.67,2.67,0,0,1-1.53.56,1.61,1.61,0,0,1-.88-.24.84.84,0,0,1-.38-.74,1,1,0,0,1,.08-.41.5.5,0,0,1,.21-.24l.22-.11a.43.43,0,0,1,.19,0c.33,0,.49.16.49.47a.59.59,0,0,1-.13.39.82.82,0,0,1-.26.22l-.14.06h0s.08.08.21.13a1,1,0,0,0,.37.08h.09l.29,0a1.48,1.48,0,0,0,.68-.43,2.35,2.35,0,0,0,.48-.68c.11-.25.19-.46.25-.63a1.36,1.36,0,0,0,.09-.33l-.07,0a1.35,1.35,0,0,1-.21.13l-.29.13a1.59,1.59,0,0,1-.43.06,1.69,1.69,0,0,1-.9-.25,1.16,1.16,0,0,1-.51-.79,2.57,2.57,0,0,1,0-.34,5,5,0,0,1,.39-1.66,5.28,5.28,0,0,0,.39-1.29v-.16a.15.15,0,0,0-.05-.08.16.16,0,0,0-.12,0h0a.66.66,0,0,0-.47.21,1.73,1.73,0,0,0-.33.45,2.89,2.89,0,0,0-.19.47,1.54,1.54,0,0,1-.09.24s-.07,0-.18,0h-.15C359.18,36.16,359.16,36.13,359.16,36.11Z" transform="translate(4 5)"/><path class="cls-4" d="M364.53,38.71s0-.08,0-.13l.1-.3a2.16,2.16,0,0,1,.16-.37.85.85,0,0,1,.26-.29.53.53,0,0,1,.36-.13.82.82,0,0,1,.47.14.67.67,0,0,1,.23.27.8.8,0,0,1,.05.16s0,0,0,0l.08-.09a1.5,1.5,0,0,1,1.1-.5,1,1,0,0,1,.68.21.76.76,0,0,1,.26.62,3.69,3.69,0,0,1-.29,1.23,3.81,3.81,0,0,0-.3,1c0,.14,0,.2.13.2h.07a.68.68,0,0,0,.41-.3,2,2,0,0,0,.28-.63s.06-.06.15-.06.16,0,.16.06a.9.9,0,0,1,0,.12,2.75,2.75,0,0,1-.17.45,1.76,1.76,0,0,1-.37.44.8.8,0,0,1-.54.21.64.64,0,0,1-.53-.21.74.74,0,0,1-.17-.44,5.14,5.14,0,0,1,.29-1,4.6,4.6,0,0,0,.29-1.19c0-.31-.12-.46-.35-.46h0a1.33,1.33,0,0,0-1.14.79l-.05.09-.26,1.06c-.17.68-.27,1.05-.3,1.1a.36.36,0,0,1-.34.22.28.28,0,0,1-.16,0,.28.28,0,0,1-.09-.1s0,0,0-.07.1-.5.3-1.28.3-1.22.31-1.28,0-.09,0-.18-.07-.31-.19-.31-.36.26-.5.78a1.29,1.29,0,0,0,0,.17s-.06.05-.15.05h-.11A.18.18,0,0,1,364.53,38.71Z" transform="translate(4 5)"/><path class="cls-4" d="M371.64,36.39V36a1,1,0,0,1,.25-.68.87.87,0,0,1,.68-.28,1,1,0,0,1,.78.39,2.09,2.09,0,0,1,.37,1.38,3.84,3.84,0,0,1-.15,1.07,4.47,4.47,0,0,1-.33.9,3.51,3.51,0,0,1-.4.64c-.15.18-.28.32-.38.42s-.17.16-.2.14-.11,0-.21-.14-.14-.16-.14-.2a.61.61,0,0,1,.17-.25c.12-.13.25-.28.4-.47a3,3,0,0,0,.4-.79,4.66,4.66,0,0,0,.26-1.14V36.8h0l-.08,0-.09,0a.26.26,0,0,1-.14,0l-.19,0a.9.9,0,0,1-.69-.27Z" transform="translate(4 5)"/><path class="cls-4" d="M380.12,31q0-.39-.3-.39A1.15,1.15,0,0,0,379,31a3.65,3.65,0,0,0-.67,1.4l0,0s0,0,0,.05,0,0,0,0h-.45c-.07-.06-.1-.11-.1-.14a1.61,1.61,0,0,1,.13-.45,6.7,6.7,0,0,1,.37-.82,2.51,2.51,0,0,1,.69-.8,1.73,1.73,0,0,1,1-.35,1.39,1.39,0,0,1,1,.38,1.28,1.28,0,0,1,.37.88,1.14,1.14,0,0,1-.05.41,3.4,3.4,0,0,1-.23.69c-.16.4-.32.86-.49,1.4a5.59,5.59,0,0,0-.28,1.39,2.51,2.51,0,0,0,.08.69.92.92,0,0,0,1,.68,1.49,1.49,0,0,0,1.08-.53,3.92,3.92,0,0,0,.79-1.24c.18-.48.34-.91.45-1.31a3.29,3.29,0,0,0,.17-.86,1.54,1.54,0,0,0-.12-.63,1.34,1.34,0,0,0-.28-.41,3.9,3.9,0,0,1-.29-.28.53.53,0,0,1-.12-.35A1,1,0,0,1,384,30a.69.69,0,0,1,.53.28,1.54,1.54,0,0,1,.26.91,7.49,7.49,0,0,1-.19,1.31,16.35,16.35,0,0,1-.58,2,5.65,5.65,0,0,1-1.12,1.87,2.27,2.27,0,0,1-1.66.8,2.36,2.36,0,0,1-1.61-.52A1.88,1.88,0,0,1,379,35.1a4.43,4.43,0,0,1,.13-1,16.82,16.82,0,0,1,.64-1.84A5.67,5.67,0,0,0,380.12,31Z" transform="translate(4 5)"/><path class="cls-4" d="M385.6,36.09a2.39,2.39,0,0,1,.59-1.08,1.64,1.64,0,0,1,1.29-.62,1.25,1.25,0,0,1,.71.2,1.21,1.21,0,0,1,.48.5,1.34,1.34,0,0,1,1.12-.7,1.09,1.09,0,0,1,.71.24.81.81,0,0,1,.31.66.86.86,0,0,1-.15.52.75.75,0,0,1-.3.24.91.91,0,0,1-.26.05.45.45,0,0,1-.34-.13.39.39,0,0,1-.13-.32.71.71,0,0,1,.55-.7.58.58,0,0,0-.44-.14l-.21,0a1.17,1.17,0,0,0-.63.73,20.28,20.28,0,0,0-.66,2.87.52.52,0,0,0,.18.44.58.58,0,0,0,.38.13,1.19,1.19,0,0,0,.81-.36,1.92,1.92,0,0,0,.55-.9c0-.07,0-.12.07-.12l.17,0h.05c.11,0,.16,0,.16.09a.53.53,0,0,1,0,.13,2.5,2.5,0,0,1-.69,1.12,1.67,1.67,0,0,1-1.18.49,1.29,1.29,0,0,1-1.18-.7,1.27,1.27,0,0,1-1.05.68h-.06a1,1,0,0,1-.78-.28,1,1,0,0,1-.24-.61.81.81,0,0,1,.21-.58.65.65,0,0,1,.5-.22c.32,0,.47.15.47.46a.59.59,0,0,1-.13.39.69.69,0,0,1-.25.22l-.15.06h0l.06,0,.18.08a.41.41,0,0,0,.21,0,.81.81,0,0,0,.69-.49,4.08,4.08,0,0,0,.26-.76l.31-1.2c.1-.41.16-.66.18-.73a3.75,3.75,0,0,0,.05-.43.52.52,0,0,0-.17-.45.56.56,0,0,0-.37-.13,1.25,1.25,0,0,0-.84.35,2,2,0,0,0-.54.91c0,.07,0,.11-.05.11l-.18,0h-.16A.22.22,0,0,1,385.6,36.09Z" transform="translate(4 5)"/><path class="cls-4" d="M391.53,38.71l0-.13s0-.15.09-.3a3.4,3.4,0,0,1,.16-.37,1,1,0,0,1,.26-.29.53.53,0,0,1,.36-.13.79.79,0,0,1,.47.14.67.67,0,0,1,.23.27.42.42,0,0,1,.05.16s0,0,0,0l.09-.09a1.48,1.48,0,0,1,1.09-.5,1,1,0,0,1,.68.21.8.8,0,0,1,.27.62,4.05,4.05,0,0,1-.3,1.23,4.3,4.3,0,0,0-.3,1c0,.14,0,.2.13.2h.07a.65.65,0,0,0,.41-.3,2,2,0,0,0,.28-.63s.06-.06.15-.06.16,0,.16.06a.9.9,0,0,1,0,.12,2.75,2.75,0,0,1-.17.45,1.94,1.94,0,0,1-.36.44.84.84,0,0,1-.55.21.64.64,0,0,1-.53-.21.72.72,0,0,1-.16-.44,4.73,4.73,0,0,1,.28-1,4.21,4.21,0,0,0,.29-1.19c0-.31-.12-.46-.35-.46h0a1.31,1.31,0,0,0-1.13.79l-.06.09-.26,1.06c-.17.68-.27,1.05-.3,1.1a.35.35,0,0,1-.33.22.29.29,0,0,1-.17,0,.19.19,0,0,1-.08-.1s0,0,0-.07.1-.5.3-1.28.3-1.22.31-1.28a.77.77,0,0,0,0-.18c0-.21-.06-.31-.19-.31s-.36.26-.49.78l-.05.17s-.06.05-.15.05h-.11A.18.18,0,0,1,391.53,38.71Z" transform="translate(4 5)"/><path class="cls-4" d="M398.36,25.18l.07,0h.34l.44.38a7.69,7.69,0,0,1,2.15,3.33A12.83,12.83,0,0,1,402,33a12.55,12.55,0,0,1-.16,2.06,12.08,12.08,0,0,1-.36,1.68,7.38,7.38,0,0,1-.58,1.38q-.37.69-.6,1a4.46,4.46,0,0,1-.64.8l-.5.52c-.06.06-.18.15-.37.3l-.06.06h-.36a.09.09,0,0,1-.08,0,.38.38,0,0,1-.05-.14l.18-.21Q400.89,38,400.89,33c0-3.29-.81-5.77-2.43-7.46l-.18-.2A.19.19,0,0,1,398.36,25.18Z" transform="translate(4 5)"/><path class="cls-4" d="M73.57,235.15a5,5,0,0,1,1.29-3.25,3.76,3.76,0,0,1,2.89-1.56,1.92,1.92,0,0,1,1.52.83.85.85,0,0,1,.78-.5.59.59,0,0,1,.39.13.4.4,0,0,1,.17.34c0,.15-.21,1.05-.62,2.71s-.64,2.59-.65,2.81a.91.91,0,0,0,.12.56.5.5,0,0,0,.36.15.75.75,0,0,0,.34-.15,4,4,0,0,0,.69-1.63c.07-.22.12-.34.17-.35a.49.49,0,0,1,.17,0h.07c.21,0,.32.05.32.15a2.57,2.57,0,0,1-.09.46,4.64,4.64,0,0,1-.34.91,2.83,2.83,0,0,1-.54.85,1.6,1.6,0,0,1-.54.36,2.07,2.07,0,0,1-.41,0,1.8,1.8,0,0,1-1-.25,1.33,1.33,0,0,1-.51-.53l-.1-.25s0,0-.07,0L78,237a3,3,0,0,1-2,.95,2.31,2.31,0,0,1-1.64-.68A2.87,2.87,0,0,1,73.57,235.15ZM79,232.26a1.82,1.82,0,0,0-.08-.38,1.75,1.75,0,0,0-.39-.59,1.09,1.09,0,0,0-.78-.34,1.63,1.63,0,0,0-1.13.53,3.37,3.37,0,0,0-.85,1.37,13,13,0,0,0-.69,2.78v.18a1.06,1.06,0,0,1,0,.21,1.46,1.46,0,0,0,.3,1,1.11,1.11,0,0,0,.73.3,1.93,1.93,0,0,0,1.27-.56,2.87,2.87,0,0,0,.75-.86s.17-.65.45-1.81S78.94,232.35,79,232.26Z" transform="translate(4 5)"/><path class="cls-4" d="M82.41,231.29c-.08-.08-.12-.13-.12-.17a2,2,0,0,1,0-.27.89.89,0,0,1,.08-.24.17.17,0,0,1,.16-.08l.86,0h.9l.32-1.35.12-.49a2.12,2.12,0,0,1,.12-.44c0-.09.06-.21.1-.34a.66.66,0,0,1,.13-.29,1.12,1.12,0,0,0,.17-.2.38.38,0,0,1,.24-.15,1,1,0,0,1,.3,0,.5.5,0,0,1,.43.19.56.56,0,0,1,.12.32c0,.08-.06.34-.16.8s-.21.89-.34,1.33l-.16.63a4.44,4.44,0,0,0,.84,0h.87a.35.35,0,0,1,.11.19.78.78,0,0,1-.22.59H85.52l-.61,2.46q-.66,2.7-.66,2.91c0,.47.15.71.46.71a1.6,1.6,0,0,0,1.15-.58,4.32,4.32,0,0,0,.9-1.42c0-.07,0-.11.08-.12l.26,0h.06c.17,0,.26,0,.26.14a1.08,1.08,0,0,1,0,.2,3.31,3.31,0,0,1-.31.64,5.75,5.75,0,0,1-.57.8,3.19,3.19,0,0,1-.87.71,2.06,2.06,0,0,1-1,.29,1.92,1.92,0,0,1-1-.26,1.42,1.42,0,0,1-.66-.88,1.66,1.66,0,0,1,0-.46v-.3l.59-2.37c.4-1.59.6-2.39.61-2.4a3.26,3.26,0,0,0-.86,0Z" transform="translate(4 5)"/><path class="cls-4" d="M88.64,235.15a5,5,0,0,1,1.28-3.25,3.79,3.79,0,0,1,2.9-1.56,1.93,1.93,0,0,1,1.52.83.84.84,0,0,1,.78-.5.59.59,0,0,1,.39.13.42.42,0,0,1,.17.34c0,.15-.21,1.05-.63,2.71s-.63,2.59-.64,2.81a.91.91,0,0,0,.12.56.5.5,0,0,0,.35.15.67.67,0,0,0,.34-.15,3.88,3.88,0,0,0,.7-1.63c.07-.22.12-.34.17-.35a.49.49,0,0,1,.17,0h.06q.33,0,.33.15a2.57,2.57,0,0,1-.09.46,5.39,5.39,0,0,1-.34.91,2.83,2.83,0,0,1-.54.85,1.7,1.7,0,0,1-.54.36,2.07,2.07,0,0,1-.41,0,1.8,1.8,0,0,1-1-.25,1.33,1.33,0,0,1-.51-.53l-.1-.25s0,0-.07,0L93,237a3,3,0,0,1-2,.95,2.31,2.31,0,0,1-1.64-.68A2.83,2.83,0,0,1,88.64,235.15ZM94,232.26a1.82,1.82,0,0,0-.08-.38,1.75,1.75,0,0,0-.39-.59,1.12,1.12,0,0,0-.78-.34,1.65,1.65,0,0,0-1.14.53,3.46,3.46,0,0,0-.84,1.37,13.64,13.64,0,0,0-.7,2.78v.18a1.22,1.22,0,0,1,0,.21,1.46,1.46,0,0,0,.3,1,1.09,1.09,0,0,0,.73.3,1.93,1.93,0,0,0,1.27-.56,2.66,2.66,0,0,0,.74-.86s.18-.65.46-1.81S94,232.35,94,232.26Z" transform="translate(4 5)"/><path class="cls-4" d="M97.39,233c0-.07,0-.16,0-.27a5.38,5.38,0,0,1,.2-.64,8.37,8.37,0,0,1,.34-.8,2.27,2.27,0,0,1,.56-.63,1.19,1.19,0,0,1,.78-.28,1.67,1.67,0,0,1,1,.3,1.34,1.34,0,0,1,.5.58,1.48,1.48,0,0,1,.11.35s0,0,0,0l.19-.19a3.17,3.17,0,0,1,2.35-1.08,2.31,2.31,0,0,1,1.48.45,1.68,1.68,0,0,1,.57,1.34,8.16,8.16,0,0,1-.64,2.66,9.24,9.24,0,0,0-.65,2.15c0,.29.1.44.29.44l.15,0a1.38,1.38,0,0,0,.89-.64,4.41,4.41,0,0,0,.59-1.35c0-.1.13-.14.34-.14s.33,0,.33.14l-.06.25a4.92,4.92,0,0,1-.38,1,3,3,0,0,1-.77,1,1.68,1.68,0,0,1-1.17.46,1.34,1.34,0,0,1-1.15-.46,1.51,1.51,0,0,1-.36-1,10.48,10.48,0,0,1,.61-2,9,9,0,0,0,.63-2.57c0-.67-.25-1-.75-1h-.08a2.89,2.89,0,0,0-2.46,1.71l-.12.2-.56,2.27c-.37,1.48-.58,2.28-.64,2.39a.77.77,0,0,1-.73.46.56.56,0,0,1-.35-.11.59.59,0,0,1-.19-.2.28.28,0,0,1,0-.17c0-.14.21-1.06.64-2.76s.66-2.61.68-2.76a2.54,2.54,0,0,0,0-.39c0-.44-.14-.66-.41-.66-.43,0-.79.57-1.07,1.7-.07.22-.1.34-.1.35s-.13.1-.32.1h-.24A.25.25,0,0,1,97.39,233Z" transform="translate(4 5)"/><path class="cls-4" d="M109,230.55a.9.9,0,0,1-.73-.31,1.07,1.07,0,0,1-.27-.74,2.84,2.84,0,0,1,.9-2.09,3.09,3.09,0,0,1,2.23-.88,3.69,3.69,0,0,1,2.58.95,3.29,3.29,0,0,1,1,2.46,3.1,3.1,0,0,1-.34,1.39,4.87,4.87,0,0,1-.82,1.15c-.31.32-.76.74-1.35,1.25-.41.35-1,.87-1.69,1.56l-1,1h1.28a22.15,22.15,0,0,0,2.83-.08,4.48,4.48,0,0,0,.41-1.51v0h.68v0s-.09.55-.22,1.54a11.94,11.94,0,0,1-.26,1.56v.05H108v-.52a.43.43,0,0,1,.1-.26c.07-.09.24-.29.51-.59l.85-.95.57-.63.58-.62.49-.56c.22-.26.38-.45.47-.58l.39-.5a3.13,3.13,0,0,0,.36-.55c.07-.14.15-.31.25-.49a2,2,0,0,0,.22-.54q.08-.27.12-.51a3,3,0,0,0,0-.56,3,3,0,0,0-.57-1.84,1.94,1.94,0,0,0-1.65-.78,1.71,1.71,0,0,0-1,.29,2,2,0,0,0-.59.56,1.22,1.22,0,0,0-.17.32s0,0,.08,0a1,1,0,0,1,.63.23.92.92,0,0,1,.32.78,1,1,0,0,1-.27.71A1,1,0,0,1,109,230.55Z" transform="translate(4 5)"/><path class="cls-4" d="M117.25,233.58a15,15,0,0,1,.56-4,6.66,6.66,0,0,1,.63-1.49c.27-.49.48-.87.64-1.14a4.55,4.55,0,0,1,.71-.88c.32-.31.5-.5.56-.57a3.39,3.39,0,0,1,.42-.36h.29q.24,0,.24.15s-.1.16-.29.36a8.22,8.22,0,0,0-.7.9,11.53,11.53,0,0,0-.82,1.45,9.73,9.73,0,0,0-.72,2.34,17.26,17.26,0,0,0-.28,3.27,17,17,0,0,0,.28,3.25,11.52,11.52,0,0,0,.7,2.35,8,8,0,0,0,.83,1.46c.28.37.52.67.71.89l.29.36c0,.1-.09.15-.26.15h-.27l-.47-.4a8.34,8.34,0,0,1-2.32-3.59A13.78,13.78,0,0,1,117.25,233.58Z" transform="translate(4 5)"/><path class="cls-4" d="M125.17,231.38c0-.29-.1-.43-.32-.43a1.21,1.21,0,0,0-.84.49,3.73,3.73,0,0,0-.73,1.51l0,.05a.11.11,0,0,0,0,.05s0,0,0,0h-.49a.25.25,0,0,1-.1-.15,2,2,0,0,1,.14-.49,6.92,6.92,0,0,1,.4-.88,2.47,2.47,0,0,1,.75-.86,1.78,1.78,0,0,1,1.06-.38,1.45,1.45,0,0,1,1.1.41,1.4,1.4,0,0,1,.41.95,1.61,1.61,0,0,1,0,.44,3.81,3.81,0,0,1-.25.74c-.17.43-.35.93-.53,1.51a6.16,6.16,0,0,0-.3,1.51,2.57,2.57,0,0,0,.08.74,1,1,0,0,0,1.07.73,1.59,1.59,0,0,0,1.17-.58,4.17,4.17,0,0,0,.84-1.33,12.62,12.62,0,0,0,.49-1.41,3.64,3.64,0,0,0,.19-.93,1.59,1.59,0,0,0-.14-.68,1.41,1.41,0,0,0-.3-.44l-.31-.3a.54.54,0,0,1-.13-.37,1.1,1.1,0,0,1,1-1,.74.74,0,0,1,.57.3,1.6,1.6,0,0,1,.27,1,7.87,7.87,0,0,1-.2,1.4,17.77,17.77,0,0,1-.63,2.12,5.79,5.79,0,0,1-1.2,2,2.46,2.46,0,0,1-1.79.87,2.55,2.55,0,0,1-1.73-.56,2,2,0,0,1-.63-1.61,4.57,4.57,0,0,1,.14-1.08,18.06,18.06,0,0,1,.69-2A5.83,5.83,0,0,0,125.17,231.38Z" transform="translate(4 5)"/><path class="cls-4" d="M130.71,236.91a1.71,1.71,0,0,1,.18-.57,3.51,3.51,0,0,1,.57-.85,1.12,1.12,0,0,1,.89-.43,1.15,1.15,0,0,1,.79.27,1,1,0,0,1,.31.77,1.45,1.45,0,0,1,0,.25,4.24,4.24,0,0,1-.19.55c-.13.35-.26.73-.39,1.16a3.5,3.5,0,0,0-.2,1,1.15,1.15,0,0,0,.17.72.64.64,0,0,0,.51.22,1,1,0,0,0,.51-.14,1.22,1.22,0,0,0,.37-.27,4.26,4.26,0,0,0,.32-.4l.06-.23c0-.16.1-.39.17-.71s.15-.62.23-.89c.3-1.19.47-1.82.5-1.88a.55.55,0,0,1,.52-.32.41.41,0,0,1,.25.08.75.75,0,0,1,.13.15.15.15,0,0,1,0,.11c0,.1-.19.94-.58,2.51s-.62,2.43-.67,2.58A3.1,3.1,0,0,1,134,242.2a2.85,2.85,0,0,1-1.66.6,1.64,1.64,0,0,1-.94-.26.89.89,0,0,1-.41-.79,1.12,1.12,0,0,1,.08-.44.69.69,0,0,1,.23-.27l.24-.12a.71.71,0,0,1,.21,0c.35,0,.52.17.52.5a.68.68,0,0,1-.14.42.83.83,0,0,1-.28.24l-.15.06h0s.09.09.23.14a1,1,0,0,0,.41.09h.09a1.19,1.19,0,0,0,.31,0,1.54,1.54,0,0,0,.73-.45,2.56,2.56,0,0,0,.52-.74c.12-.27.21-.49.27-.67a1.41,1.41,0,0,0,.1-.36l-.07.05-.23.13-.31.14a2,2,0,0,1-.47.06,1.83,1.83,0,0,1-1-.26,1.3,1.3,0,0,1-.55-.85,3.15,3.15,0,0,1,0-.37,5.34,5.34,0,0,1,.42-1.79,5.61,5.61,0,0,0,.42-1.4v-.16a.14.14,0,0,0-.05-.09.19.19,0,0,0-.13-.05h0a.7.7,0,0,0-.5.23,2.06,2.06,0,0,0-.36.49,3.87,3.87,0,0,0-.21.5,1.47,1.47,0,0,1-.09.27.56.56,0,0,1-.19,0h-.17C130.73,237,130.71,236.94,130.71,236.91Z" transform="translate(4 5)"/><path class="cls-4" d="M136.5,239.72s0-.08,0-.14,0-.16.11-.32a2.18,2.18,0,0,1,.17-.4,1,1,0,0,1,.27-.31.64.64,0,0,1,.39-.15.82.82,0,0,1,.51.16.73.73,0,0,1,.26.28.85.85,0,0,1,.05.18s0,0,0,0l.09-.09a1.58,1.58,0,0,1,1.17-.55,1.15,1.15,0,0,1,.74.23.86.86,0,0,1,.29.67,4.22,4.22,0,0,1-.32,1.33,4.19,4.19,0,0,0-.32,1.08c0,.14,0,.22.14.22h.08a.73.73,0,0,0,.44-.32,2.22,2.22,0,0,0,.29-.68s.07-.07.17-.07.17,0,.17.07,0,.05,0,.12a2.92,2.92,0,0,1-.19.49,1.62,1.62,0,0,1-.39.47.8.8,0,0,1-.58.23.7.7,0,0,1-.58-.23.75.75,0,0,1-.18-.47,5.78,5.78,0,0,1,.31-1,4.45,4.45,0,0,0,.31-1.28c0-.34-.12-.5-.37-.5h0a1.43,1.43,0,0,0-1.23.85l-.06.1-.28,1.14c-.18.74-.29,1.13-.32,1.19a.38.38,0,0,1-.36.23.3.3,0,0,1-.18-.05.46.46,0,0,1-.1-.1s0-.07,0-.09.11-.53.32-1.38.33-1.3.34-1.38,0-.09,0-.19-.07-.33-.21-.33-.39.28-.53.84c0,.12,0,.18,0,.18s-.07,0-.16,0h-.12A.18.18,0,0,1,136.5,239.72Z" transform="translate(4 5)"/><path class="cls-4" d="M144.17,237.22v-.43a1,1,0,0,1,.27-.72.9.9,0,0,1,.73-.31,1.11,1.11,0,0,1,.84.42,2.34,2.34,0,0,1,.39,1.49,4.5,4.5,0,0,1-.15,1.16,4.83,4.83,0,0,1-.36,1,3.64,3.64,0,0,1-.44.7,5.14,5.14,0,0,1-.4.45c-.12.12-.19.17-.22.15s-.12-.05-.22-.15-.16-.17-.16-.22.07-.13.19-.27a4.09,4.09,0,0,0,.42-.51,3,3,0,0,0,.44-.84,4.92,4.92,0,0,0,.28-1.24v-.2h0a.19.19,0,0,1-.09,0l-.1,0a.28.28,0,0,1-.15,0l-.2,0a1,1,0,0,1-.75-.29Z" transform="translate(4 5)"/><path class="cls-4" d="M153.3,231.38c0-.29-.1-.43-.32-.43a1.21,1.21,0,0,0-.84.49,3.73,3.73,0,0,0-.73,1.51l0,.05a.11.11,0,0,0,0,.05s0,0,0,0h-.49a.25.25,0,0,1-.1-.15,2,2,0,0,1,.14-.49,6.92,6.92,0,0,1,.4-.88,2.47,2.47,0,0,1,.75-.86,1.78,1.78,0,0,1,1.06-.38,1.43,1.43,0,0,1,1.1.41,1.4,1.4,0,0,1,.41.95,1.61,1.61,0,0,1-.05.44,3.81,3.81,0,0,1-.25.74c-.17.43-.35.93-.53,1.51a6.16,6.16,0,0,0-.3,1.51,3,3,0,0,0,.08.74,1,1,0,0,0,1.07.73,1.58,1.58,0,0,0,1.17-.58,4.17,4.17,0,0,0,.84-1.33,12.62,12.62,0,0,0,.49-1.41,3.64,3.64,0,0,0,.19-.93,1.59,1.59,0,0,0-.14-.68,1.41,1.41,0,0,0-.3-.44q-.17-.15-.3-.3a.5.5,0,0,1-.14-.37,1.1,1.1,0,0,1,1-1,.74.74,0,0,1,.57.3,1.6,1.6,0,0,1,.27,1,7.87,7.87,0,0,1-.2,1.4,17.77,17.77,0,0,1-.63,2.12,5.79,5.79,0,0,1-1.2,2,2.46,2.46,0,0,1-1.79.87,2.55,2.55,0,0,1-1.73-.56,2,2,0,0,1-.63-1.61,4.57,4.57,0,0,1,.14-1.08,18.06,18.06,0,0,1,.69-2A5.83,5.83,0,0,0,153.3,231.38Z" transform="translate(4 5)"/><path class="cls-4" d="M159.21,236.89a2.61,2.61,0,0,1,.65-1.16,1.77,1.77,0,0,1,1.38-.67,1.46,1.46,0,0,1,.77.21,1.57,1.57,0,0,1,.52.54,1.43,1.43,0,0,1,1.2-.75,1.21,1.21,0,0,1,.77.26.9.9,0,0,1,.34.71.89.89,0,0,1-.17.56.69.69,0,0,1-.33.26.71.71,0,0,1-.27.05.51.51,0,0,1-.37-.13.44.44,0,0,1-.15-.35.76.76,0,0,1,.6-.75.6.6,0,0,0-.48-.16.57.57,0,0,0-.22,0,1.23,1.23,0,0,0-.67.79,21.45,21.45,0,0,0-.72,3.09.53.53,0,0,0,.19.47.68.68,0,0,0,.42.15,1.26,1.26,0,0,0,.87-.4,1.91,1.91,0,0,0,.59-1,.21.21,0,0,1,.07-.13l.19,0h.05q.18,0,.18.09l0,.14a2.65,2.65,0,0,1-.75,1.2,1.74,1.74,0,0,1-1.28.53,1.38,1.38,0,0,1-1.27-.75,1.37,1.37,0,0,1-1.12.74h-.07a1,1,0,0,1-.84-.31,1,1,0,0,1-.26-.66.86.86,0,0,1,.22-.62.71.71,0,0,1,.54-.24c.35,0,.52.17.52.5a.64.64,0,0,1-.15.42.73.73,0,0,1-.27.24l-.16.06h0l.07,0,.19.08a.49.49,0,0,0,.23,0,.89.89,0,0,0,.74-.54,4.53,4.53,0,0,0,.27-.81c.12-.42.23-.85.34-1.3s.18-.71.19-.79a2.86,2.86,0,0,0,.06-.46.56.56,0,0,0-.18-.48.61.61,0,0,0-.41-.15,1.3,1.3,0,0,0-.89.39,2,2,0,0,0-.59,1q0,.1-.06.12l-.19,0h-.17A.19.19,0,0,1,159.21,236.89Z" transform="translate(4 5)"/><path class="cls-4" d="M165.61,239.72s0-.08,0-.14a2,2,0,0,1,.1-.32,2.18,2.18,0,0,1,.17-.4.89.89,0,0,1,.28-.31.64.64,0,0,1,.39-.15.81.81,0,0,1,.5.16.73.73,0,0,1,.26.28.85.85,0,0,1,0,.18s0,0,0,0l.09-.09a1.6,1.6,0,0,1,1.18-.55,1.12,1.12,0,0,1,.73.23.86.86,0,0,1,.29.67,4,4,0,0,1-.32,1.33,4.19,4.19,0,0,0-.32,1.08c0,.14,0,.22.14.22h.08a.73.73,0,0,0,.44-.32,2,2,0,0,0,.29-.68s.07-.07.17-.07.17,0,.17.07,0,.05,0,.12a2.92,2.92,0,0,1-.19.49,1.62,1.62,0,0,1-.39.47.8.8,0,0,1-.58.23.7.7,0,0,1-.58-.23.74.74,0,0,1-.17-.47,5.34,5.34,0,0,1,.3-1,4.45,4.45,0,0,0,.31-1.28c0-.34-.12-.5-.37-.5h0a1.43,1.43,0,0,0-1.23.85l-.06.1-.28,1.14c-.18.74-.29,1.13-.32,1.19a.37.37,0,0,1-.36.23.32.32,0,0,1-.18-.05.26.26,0,0,1-.09-.1s0-.07,0-.09.11-.53.32-1.38.33-1.3.34-1.38a.82.82,0,0,0,0-.19c0-.22-.07-.33-.2-.33s-.4.28-.54.84c0,.12-.05.18-.05.18s-.06,0-.16,0h-.12A.18.18,0,0,1,165.61,239.72Z" transform="translate(4 5)"/><path class="cls-4" d="M173,225.13l.07,0h.37l.48.41a8.37,8.37,0,0,1,2.32,3.59,14,14,0,0,1,.73,4.47,14.68,14.68,0,0,1-.17,2.22,17.81,17.81,0,0,1-.39,1.81,8.2,8.2,0,0,1-.63,1.49c-.27.49-.48.87-.64,1.13a4.81,4.81,0,0,1-.7.86c-.3.32-.48.51-.54.56a2.47,2.47,0,0,1-.39.32l-.07.07H173a.09.09,0,0,1-.09,0,.37.37,0,0,1-.05-.15l.19-.22q2.63-2.73,2.62-8t-2.62-8l-.19-.22A.2.2,0,0,1,173,225.13Z" transform="translate(4 5)"/><path class="cls-4" d="M183.26,232.39v-.22a.37.37,0,0,1,.23-.34h5.06v-2.52c0-1.68,0-2.54,0-2.59a.3.3,0,0,1,.29-.19.26.26,0,0,1,.28.21,5.1,5.1,0,0,1,.07,1v4.11h5.05a.4.4,0,0,1,.25.34.36.36,0,0,1-.25.34h-5.05v4.62h5.05a.4.4,0,0,1,.25.34.38.38,0,0,1-.25.34H183.49a.37.37,0,0,1,0-.68h5.06v-4.62h-5.06a.36.36,0,0,1-.23-.34Z" transform="translate(4 5)"/><path class="cls-4" d="M201.48,238a.5.5,0,0,1-.58-.56v-.19l.22-.47a34,34,0,0,0,1.85-4.62l.13-.41h-.54a6.08,6.08,0,0,0-.91.05,1.78,1.78,0,0,0-.66.32,2.07,2.07,0,0,0-.38.31c-.12.12-.23.24-.32.35a1.82,1.82,0,0,0-.15.2.63.63,0,0,1-.25,0c-.22,0-.33-.05-.33-.17a2,2,0,0,1,.33-.59,5.31,5.31,0,0,1,.93-1.05,2.22,2.22,0,0,1,1.2-.64c.08,0,1.35,0,3.81,0,1.8,0,2.73,0,2.78,0a.46.46,0,0,1,.33.47.7.7,0,0,1-.54.71,7.26,7.26,0,0,1-1.17,0h-1.08l-.05.29a12.07,12.07,0,0,0-.2,2,7.57,7.57,0,0,0,.15,1.58,6.28,6.28,0,0,0,.32,1.08,2.29,2.29,0,0,1,.17.47.78.78,0,0,1-.24.55.83.83,0,0,1-.61.25.85.85,0,0,1-.3,0,.82.82,0,0,1-.27-.41,4.87,4.87,0,0,1-.27-1c0-.11,0-.35,0-.75A11.55,11.55,0,0,1,205,234c.1-.63.21-1.15.31-1.55l.17-.68H203.8l0,.07s-.11.48-.32,1.33-.46,1.77-.73,2.73a14.14,14.14,0,0,1-.52,1.64A.72.72,0,0,1,201.48,238Z" transform="translate(4 5)"/><text class="cls-5" transform="translate(95.77 278.75)">矩</text><text class="cls-5" transform="translate(116.93 278.75)">形</text><text class="cls-5" transform="translate(138.1 278.75)">表</text><text class="cls-5" transform="translate(159.26 278.75)">示</text><text class="cls-5" transform="translate(180.43 278.75)">动</text><text class="cls-5" transform="translate(201.49 278.75)">力</text><text class="cls-5" transform="translate(222.55 278.75)">轮</text><text class="cls-5" transform="translate(256.95 278.75)">圆</text><text class="cls-5" transform="translate(278 278.75)">形</text><text class="cls-5" transform="translate(299.17 278.75)">表</text><text class="cls-5" transform="translate(320.33 278.75)">示</text><text class="cls-5" transform="translate(341.5 278.75)">舵</text><text class="cls-5" transform="translate(362.67 278.75)">向</text><text class="cls-5" transform="translate(383.72 278.75)">轮</text></svg>